<?xml version="1.0" encoding="UTF-8"?>
<svg id="Layer_1" xmlns="http://www.w3.org/2000/svg" version="1.1" viewBox="0 0 87.5 88.23">
  <!-- Generator: Adobe Illustrator 29.8.3, SVG Export Plug-In . SVG Version: 2.1.1 Build 3)  -->
  <path d="M84.38,25.73h-27.16c-1.73,0-3.12,1.4-3.12,3.13s1.4,3.12,3.12,3.12h24.03v50H6.25V31.98h24.03c1.73,0,3.12-1.4,3.12-3.12s-1.4-3.12-3.12-3.12H3.12c-1.73,0-3.12,1.4-3.12,3.12v56.25c0,1.73,1.4,3.12,3.12,3.12h81.25c1.73,0,3.12-1.4,3.12-3.12V28.86c0-1.73-1.4-3.12-3.12-3.13Z"/>
  <path d="M40.63,19.48v42.04c0,1.73,1.4,3.12,3.12,3.12s3.12-1.4,3.12-3.12V19.48c0-1.73-1.4-3.12-3.12-3.12s-3.12,1.4-3.12,3.12Z"/>
  <path d="M56.25,19.75c.79,0,1.58-.3,2.19-.89,1.23-1.21,1.25-3.19.05-4.42L45.98,1.68c-1.18-1.2-3.29-1.2-4.46,0l-12.5,12.76c-1.21,1.23-1.19,3.21.05,4.42,1.23,1.21,3.21,1.19,4.42-.05l10.27-10.48,10.27,10.48c.61.62,1.42.94,2.23.94h0Z"/>
</svg>