<?xml version="1.0" encoding="UTF-8"?>
<svg id="Layer_1" xmlns="http://www.w3.org/2000/svg" version="1.1" viewBox="0 0 89.09 92.51">
  <!-- Generator: Adobe Illustrator 29.8.3, SVG Export Plug-In . SVG Version: 2.1.1 Build 3)  -->
  <path d="M78.92,48.93v26.57c0,6.02-4.91,10.93-10.93,10.93H14.85c-6.02,0-10.93-4.91-10.93-10.93V23.93c0-6.02,4.91-10.93,10.93-10.93h26.57c1.73,0,3.12,1.4,3.12,3.12s-1.4,3.12-3.12,3.12H14.85c-2.58,0-4.68,2.1-4.68,4.68v51.58c0,2.58,2.1,4.68,4.68,4.68h53.14c2.58,0,4.68-2.1,4.68-4.68v-26.57c0-1.73,1.4-3.12,3.12-3.12s3.12,1.4,3.12,3.12h0ZM85.11,7.7c-.02-.09-.05-.18-.08-.27-.03-.11-.05-.21-.1-.32-.05-.11-.1-.2-.16-.3-.05-.08-.08-.16-.12-.23-.23-.34-.52-.64-.87-.87-.08-.05-.16-.09-.24-.13-.09-.05-.2-.11-.3-.16-.1-.05-.21-.07-.32-.1-.09-.02-.17-.06-.27-.08-.2-.03-.41-.05-.61-.05h-25c-1.73,0-3.12,1.4-3.12,3.12s1.4,3.12,3.12,3.12h17.45l-38.41,38.41c-1.22,1.22-1.22,3.2,0,4.42.61.61,1.41.91,2.21.91s1.6-.3,2.21-.91L78.92,15.86v17.45c0,1.73,1.4,3.12,3.12,3.12s3.12-1.4,3.12-3.12V8.31c0-.2-.02-.41-.06-.61h0Z"/>
</svg>