<?xml version="1.0" encoding="UTF-8"?>
<svg id="Layer_1" xmlns="http://www.w3.org/2000/svg" version="1.1" viewBox="0 0 67.6 67.5">
  <!-- Generator: Adobe Illustrator 29.8.3, SVG Export Plug-In . SVG Version: 2.1.1 Build 3)  -->
  <path d="M0,60c0,2.1,1.7,3.8,3.8,3.8s3.8-1.7,3.8-3.8v-4.7c6.5,7.7,16.1,12.2,26.2,12.2,17,0,31.3-12.6,33.5-29.5.3-2.1-1.1-3.9-3.2-4.2s-3.9,1.1-4.2,3.2v.1c-1.7,13.1-12.8,22.9-26,22.9-8.7,0-16.9-4.2-21.9-11.2h6.8c2.1,0,3.8-1.7,3.8-3.8s-1.7-3.8-3.8-3.8H3.8C1.7,41.2,0,42.9,0,45H0s0,15,0,15Z"/>
  <path d="M45,22.5c0,2.1,1.7,3.8,3.8,3.8h15c2.1,0,3.8-1.7,3.8-3.8h0V7.5c0-2.1-1.7-3.8-3.8-3.8s-3.8,1.7-3.8,3.8v4.7C53.5,4.5,43.9,0,33.8,0,16.8,0,2.4,12.7.3,29.5c-.2,2.1,1.3,3.9,3.4,4.1,2,.2,3.8-1.2,4.1-3.2,1.6-13.1,12.8-23,26-23,8.7,0,16.9,4.2,21.9,11.3h-6.9c-2.1.1-3.8,1.8-3.8,3.8h0Z"/>
</svg>