<?xml version="1.0" encoding="UTF-8"?>
<svg id="Layer_1" xmlns="http://www.w3.org/2000/svg" version="1.1" viewBox="0 0 22.97 22.66">
  <!-- Generator: Adobe Illustrator 29.8.3, SVG Export Plug-In . SVG Version: 2.1.1 Build 3)  -->
  <path d="M14.28,20.02c-.42.15-.86.26-1.3.35-.07.23-.13.43-.18.62-.1.36-.17.68-.22.98-.07.38-.38.66-.77.68-1.28.07-2.59-.08-3.88-.42-.13-.04-.27-.08-.41-.12-.31-.1-.53-.37-.57-.69-.01-.13-.03-.27-.04-.42-.03-.3-.04-.54-.08-1.07-.01-.19-.02-.32-.03-.42-.67-.36-1.3-.8-1.88-1.34-.48.11-.95.2-1.82.35l-.19.03c-.3.05-.61-.07-.79-.31-.89-1.16-1.56-2.46-2-3.86-.1-.33.01-.69.29-.89.5-.38.98-.74,1.46-1.07-.17-1.13-.14-2.27.1-3.35-.5-.34-.98-.7-1.43-1.07-.27-.22-.37-.6-.24-.93.62-1.61,1.62-3.01,2.98-4.17.28-.24.7-.26,1-.05.31.22.55.41,1.09.87.07.06.12.1.17.14.52-.35,1.07-.66,1.66-.91.03-.6.06-1.21.1-1.74.02-.35.26-.64.6-.74C9.65,0,11.49-.12,13.25.15c.33.05.6.3.67.63.04.17.08.34.12.53.07.34.13.61.25,1.22.21.1.41.17.6.25.32.12.63.27.94.42.17-.14.35-.29.64-.52l.06-.05c.29-.23.45-.36.63-.51.28-.23.68-.25.98-.05,1.51,1.02,2.76,2.35,3.61,3.85.18.33.12.74-.15,1l-.32.3c-.19.18-.27.26-.38.36-.22.21-.41.38-.59.54.22.59.36,1.21.43,1.83.51.21,1.06.42,1.69.65.35.13.56.47.53.84-.06.78-.19,1.54-.39,2.28-.19.7-.43,1.38-.73,2.03-.15.33-.49.52-.85.47-.53-.07-1.07-.15-1.71-.25-.22.35-.46.69-.71,1.01.26.4.55.82.87,1.27.23.33.19.78-.09,1.06-.8.79-1.7,1.45-2.67,1.98-.27.15-.61.13-.86-.05-.28-.2-.5-.37-1.21-.95-.02-.02-.17-.14-.32-.26ZM11.84,20.73c.08-.29.17-.59.28-.95.06-.18.21-.31.4-.34.57-.09,1.14-.24,1.68-.45.17-.06.35-.03.49.08.13.1.51.41.54.44.61.5.85.69,1.08.85.81-.45,1.56-1,2.24-1.65-.37-.53-.7-1.02-1.01-1.49-.12-.19-.1-.43.04-.6.39-.44.73-.93,1.02-1.44.1-.18.31-.28.52-.25.72.12,1.31.21,1.88.29.25-.56.46-1.15.62-1.75.17-.64.29-1.3.35-1.97-.7-.26-1.31-.5-1.88-.73-.18-.07-.3-.24-.31-.43-.05-.74-.22-1.46-.51-2.16-.08-.2-.03-.43.13-.57.25-.22.5-.45.82-.75.1-.1.19-.18.37-.35l.22-.21c-.75-1.28-1.82-2.42-3.12-3.32-.15.12-.3.24-.54.44l-.06.05c-.44.35-.64.52-.88.72-.16.14-.39.16-.57.06-.36-.2-.74-.38-1.12-.53-.26-.1-.52-.19-.79-.27-.18-.05-.32-.2-.35-.38l-.07-.34c-.12-.61-.18-.87-.25-1.21-.03-.14-.06-.27-.09-.4-1.54-.22-3.15-.12-4.67.28-.04.6-.08,1.26-.1,1.91,0,.2-.13.37-.32.44-.74.29-1.43.67-2.05,1.14-.18.14-.44.13-.62-.01-.14-.11-.25-.21-.48-.4-.44-.38-.66-.56-.9-.73-1.14,1-1.99,2.19-2.54,3.55.47.39.99.76,1.53,1.12.18.12.26.34.21.55-.3,1.14-.34,2.37-.12,3.57.04.19-.04.39-.2.5-.51.36-1.03.74-1.58,1.16.39,1.21.97,2.33,1.73,3.34h.08c1-.19,1.46-.28,2.01-.42.17-.04.35,0,.47.13.63.61,1.32,1.11,2.08,1.48.16.08.27.23.28.41.01.19.03.35.05.7.04.54.05.77.08,1.06,0,.1.02.19.03.28.09.03.17.05.25.07,1.15.31,2.3.44,3.43.4.06-.29.13-.59.21-.92ZM15.95,8.31c.19.34.34.69.46,1.04.95,2.91-.59,5.94-3.49,6.89-2.65.86-5.71-.74-6.58-3.44-.83-2.57.72-5.63,3.64-6.58.19-.06.38-.11.57-.15,2.32-.48,4.44.51,5.4,2.23ZM10.75,7.06c-.15.03-.31.07-.47.12-2.4.78-3.66,3.27-3,5.32.71,2.17,3.21,3.48,5.32,2.79,2.38-.77,3.63-3.24,2.85-5.63-.1-.3-.22-.59-.38-.86-.75-1.34-2.44-2.13-4.33-1.74l-.1-.49.1.49Z"/>
</svg>