<?xml version="1.0" encoding="UTF-8"?>
<svg id="Layer_1" xmlns="http://www.w3.org/2000/svg" version="1.1" viewBox="0 0 22 22.13">
  <!-- Generator: Adobe Illustrator 29.8.3, SVG Export Plug-In . SVG Version: 2.1.1 Build 3)  -->
  <defs>
    <style>
      .st0 {
        fill: none;
        stroke: #000;
        stroke-width: 2px;
      }

      .st1 {
        fill-rule: evenodd;
      }
    </style>
  </defs>
  <circle class="st0" cx="11" cy="11" r="10"/>
  <path class="st1" d="M13.27,15.98l-.17.7c-.52.2-.93.36-1.23.46s-.66.16-1.07.16c-.63,0-1.11-.15-1.46-.46s-.52-.69-.52-1.16c0-.18.01-.37.04-.56s.07-.4.12-.64l.64-2.28c.06-.22.11-.43.14-.62s.06-.37.06-.54c0-.29-.06-.49-.18-.61s-.35-.17-.69-.17c-.17,0-.34.03-.51.08s-.32.1-.45.15l.17-.7c.42-.17.83-.32,1.21-.44s.75-.18,1.09-.18c.62,0,1.1.15,1.43.45s.5.69.5,1.17c0,.1-.01.27-.04.52s-.07.48-.13.69l-.64,2.27c-.05.18-.1.39-.14.62s-.06.41-.06.53c0,.3.07.51.2.62s.37.16.7.16c.16,0,.33-.03.53-.08s.34-.1.43-.14ZM13.44,6.44c0,.4-.15.73-.45,1.01s-.66.42-1.08.42-.78-.14-1.09-.42c-.3-.28-.45-.62-.45-1.01s.15-.73.45-1.02c.3-.28.66-.42,1.09-.42s.78.14,1.08.42.45.62.45,1.02Z"/>
</svg>