<?xml version="1.0" encoding="UTF-8"?>
<svg id="Layer_1" xmlns="http://www.w3.org/2000/svg" version="1.1" viewBox="0 0 81 81.54">
  <!-- Generator: Adobe Illustrator 29.8.3, SVG Export Plug-In . SVG Version: 2.1.1 Build 3)  -->
  <defs>
    <style>
      .st0 {
        fill-rule: evenodd;
      }
    </style>
  </defs>
  <path class="st0" d="M81,40.5c0,22.37-18.13,40.5-40.5,40.5S0,62.87,0,40.5,18.13,0,40.5,0s40.5,18.13,40.5,40.5ZM51,18.28c0,3.47-2.82,6.29-6.29,6.29s-6.29-2.81-6.29-6.29,2.81-6.29,6.29-6.29,6.29,2.81,6.29,6.29ZM32.15,33.34l13.72-2c.72-.11,1.3.57,1.1,1.27l-8.09,27.98c-.35,1.88,4.29-.73,7.47-2.71.85-.53,1.82.32,1.32,1.19-2.51,4.4-7.79,11.75-14.12,9.5-6.38-2.25-4.77-7.39-2.84-13.57.3-.96.61-1.94.89-2.95.71-2.48,1.61-4.97,2.4-7.17,1.59-4.41,2.75-7.64,1.11-7.22-1.96.49-4.38-1.31-3.69-3.73.09-.33.39-.55.73-.59h0Z"/>
</svg>