<?xml version="1.0" encoding="UTF-8"?>
<svg id="Layer_1" xmlns="http://www.w3.org/2000/svg" version="1.1" viewBox="0 0 76.73 76.56">
  <!-- Generator: Adobe Illustrator 29.8.3, SVG Export Plug-In . SVG Version: 2.1.1 Build 3)  -->
  <defs>
    <style>
      .st0 {
        fill: none;
        stroke: #000;
        stroke-miterlimit: 10;
        stroke-width: 4px;
      }
    </style>
  </defs>
  <path d="M49.08,54.43c1.85-2.04,2.87-4.37,2.88-7.18,0-.12,0-.25,0-.37h0v-.02c0-.86-.1-1.82-.37-2.64-.3-.89-.59-1.66-.94-2.18l-.02-.03v-.03c-.26-.51-.83-1.18-1.49-1.74-.7-.6-1.29-1.09-1.79-1.49-.42-.34-1.21-.75-2.21-1.24-1-.5-1.8-.9-2.26-1.08-.49-.2-1.29-.5-2.39-.89h0s0,0,0,0c-.98-.39-1.66-.58-2.14-.82-.34-.17-.97-.39-1.8-.8-.8-.41-1.41-.69-1.83-1.09-.26-.26-.65-.56-1.16-.96h0c-.56-.35-.96-.87-1.08-1.49-.1-.5-.21-1.03-.21-1.6,0-1.46.71-2.74,2-3.7,1.32-.99,3.03-1.4,5-1.4.84,0,1.77.1,2.71.31.95.21,1.69.53,2.39.83h.03s.02.03.02.03c.69.39,1.28.69,1.81,1.01l.03.02.03.02c.49.39.77.57,1.07.77.32.21.47.36.58.46l.21.09h.08s.08-.04.08-.04h.06l.05-.03.1-.13.02-.05,2.51-4.42.05-.2c0-.1-.05-.24-.16-.41-.07-.04-.14-.07-.22-.13-.13-.09-.27-.23-.37-.42h0s-.04-.04-.04-.04l-.19-.16c-.17-.13-.41-.3-.7-.5-.58-.38-1.26-.77-1.84-1.06-.68-.29-1.47-.59-2.56-.98h0s0,0,0,0c-.94-.37-1.98-.57-3.16-.67l-.46-.04v-5.76c0-.1-.01-.14-.03-.18l-.12-.16-.16-.12s-.09-.03-.18-.03h-4c-.1,0-.14.01-.18.03l-.16.12-.12.16s-.03.09-.03.18v6.01l-.41.08c-3.12.59-5.5,1.83-7.43,3.85-1.92,2.03-2.86,4.28-2.86,6.96,0,.86.09,1.51.29,2.28.19.77.38,1.35.58,1.94.17.42.54.99,1.02,1.56.5.6.9,1.1,1.27,1.47.34.35.94.75,1.57,1.27.54.45,1.09.73,1.61,1.04.52.21,1.12.51,1.9.9h.01s.01.01.01.01c.66.37,1.22.56,1.74.77h.02s.02.02.02.02c.4.2.98.49,1.75.78h.02s.02.01.02.01c1.09.49,1.87.79,2.38.99.58.24,1.15.62,2.02,1.01.95.42,1.51.86,1.9,1.16.48.36.81.82,1.13,1.34.32.54.57,1.14.57,1.86,0,.86-.16,1.65-.52,2.34-.35.69-.89,1.28-1.6,1.77-1.38.96-2.9,1.39-4.58,1.39-.84,0-1.57-.1-2.36-.2h-.03s-.03,0-.03,0c-2.68-.62-5.16-1.86-7.52-3.91h-.01s-.01-.02-.01-.02l-.1-.1c-.08-.08-.25-.16-.45-.15-.1,0-.14.02-.15.02h0s-.02.04-.02.04l-3.09,4.09c-.05.11-.08.21-.08.29,0,.11.03.21.14.36l.1.13v.03c.06.05.15.14.28.22.34.23.84.63,1.44,1.13.56.46,1.33.95,2.1,1.33.88.39,1.88.79,3.08,1.29,1.15.48,2.41.77,3.68.97l.42.07v5.63c0,.1.01.14.03.18l.12.16.16.12s.09.03.18.03h4c.1,0,.14-.01.18-.03l.16-.12.12-.16s.03-.09.03-.18v-5.61l.41-.08c3.11-.59,5.6-1.93,7.52-4.04Z"/>
  <path class="st0" d="M38.45,2.31C18.67,2.31,2.59,18.38,2.59,38.17s16.07,35.86,35.86,35.86,35.86-16.07,35.86-35.86S58.24,2.31,38.45,2.31Z"/>
</svg>