<?xml version="1.0" encoding="UTF-8"?>
<svg id="Layer_1" xmlns="http://www.w3.org/2000/svg" version="1.1" viewBox="0 0 87.62 93.89">
  <!-- Generator: Adobe Illustrator 29.8.3, SVG Export Plug-In . SVG Version: 2.1.1 Build 3)  -->
  <defs>
    <style>
      .st0 {
        fill-rule: evenodd;
      }
    </style>
  </defs>
  <path class="st0" d="M22.35,21.63h-9.38c-2.49,0-4.87.99-6.63,2.75-1.76,1.76-2.75,4.14-2.75,6.63v50c0,2.49.99,4.87,2.75,6.63,1.76,1.76,4.14,2.75,6.63,2.75h43.75c2.49,0,4.87-.99,6.63-2.75,1.76-1.76,2.75-4.14,2.75-6.63v-9.38h9.38c2.49,0,4.87-.99,6.63-2.75,1.76-1.76,2.75-4.14,2.75-6.63V12.26c0-2.49-.99-4.87-2.75-6.63-1.76-1.76-4.14-2.75-6.63-2.75H31.73c-5.18,0-9.38,4.2-9.38,9.38v9.38ZM59.85,31.01v50c0,.83-.33,1.62-.91,2.21-.59.59-1.38.91-2.21.91H12.98c-.83,0-1.62-.33-2.21-.91-.59-.59-.91-1.38-.91-2.21V31.01c0-.83.33-1.62.91-2.21.59-.59,1.38-.91,2.21-.91h43.75c.83,0,1.62.33,2.21.91.59.59.91,1.38.91,2.21ZM66.1,65.38h9.38c.83,0,1.62-.33,2.21-.91.59-.59.91-1.38.91-2.21V12.26c0-.83-.33-1.62-.91-2.21-.59-.59-1.38-.91-2.21-.91H31.73c-1.73,0-3.12,1.4-3.12,3.12v9.38h28.12c2.49,0,4.87.99,6.63,2.75,1.76,1.76,2.75,4.14,2.75,6.63v34.37Z"/>
</svg>