<?xml version="1.0" encoding="UTF-8"?>
<svg id="Layer_1" xmlns="http://www.w3.org/2000/svg" version="1.1" viewBox="0 0 27.82 27.25">
  <!-- Generator: Adobe Illustrator 29.8.3, SVG Export Plug-In . SVG Version: 2.1.1 Build 3)  -->
  <path d="M2.83,27.25h20.17c1.56,0,2.83-1.27,2.83-2.83v-10.67c0-.55-.45-1-1-1s-1,.45-1,1v10.67c0,.46-.37.83-.83.83H2.83c-.46,0-.83-.37-.83-.83V5.24c0-.46.37-.83.83-.83h11.17c.55,0,1-.45,1-1s-.45-1-1-1H2.83c-1.56,0-2.83,1.27-2.83,2.83v19.18c0,1.56,1.27,2.83,2.83,2.83Z"/>
  <path d="M6.58,16.93l-.67,3.35c-.15.75.33,1.48,1.09,1.63.09.02.18.03.27.03.09,0,.18,0,.27-.03l3.35-.67c.64-.13,1.24-.44,1.7-.91l14.25-14.25c1.36-1.45,1.29-3.74-.16-5.1-1.39-1.3-3.55-1.3-4.94,0L7.49,15.23c-.46.46-.78,1.05-.91,1.7ZM8.54,17.32c.05-.26.18-.49.36-.67L23.16,2.39c.63-.62,1.65-.62,2.27.02.62.63.62,1.63,0,2.26l-14.25,14.25c-.18.18-.42.31-.68.36l-2.45.49.49-2.45Z"/>
</svg>