<?xml version="1.0" encoding="UTF-8"?>
<svg id="Layer_1" xmlns="http://www.w3.org/2000/svg" version="1.1" viewBox="0 0 21 21">
  <!-- Generator: Adobe Illustrator 29.8.4, SVG Export Plug-In . SVG Version: 2.1.1 Build 6)  -->
  <defs>
    <style>
      .st0 {
        fill-rule: evenodd;
      }
    </style>
  </defs>
  <path class="st0" d="M10.5,4.5c.76,0,1.38.62,1.38,1.38,0,.04,0,.08,0,.11l-.56,6.76c-.04.42-.39.75-.81.75s-.78-.32-.81-.75l-.56-6.76c-.06-.76.5-1.43,1.26-1.49.04,0,.08,0,.11,0ZM10.5,16.5c-.55,0-1-.45-1-1s.45-1,1-1,1,.45,1,1-.45,1-1,1ZM10.5,21C4.7,21,0,16.3,0,10.5S4.7,0,10.5,0s10.5,4.7,10.5,10.5-4.7,10.5-10.5,10.5ZM10.5,19c4.69,0,8.5-3.81,8.5-8.5S15.19,2,10.5,2,2,5.81,2,10.5s3.81,8.5,8.5,8.5Z"/>
</svg>

