<svg width="24" height="24" viewBox="0 0 24 24" fill="none" xmlns="http://www.w3.org/2000/svg">
  <rect x="3" y="4" width="18" height="16" rx="3" ry="3" stroke="#ffffff" stroke-width="1.5" fill="none"/>
  <path d="M7 12.5C7 10.57 8.34 9.25 10.5 9.25H11.2C12.19 9.25 12.9 9.57 13.37 10.02C13.84 10.47 14.08 11.09 14.08 11.81C14.08 13.01 13.39 13.77 12.31 14.08L10.9 14.48C10.19 14.68 9.85 14.99 9.85 15.55C9.85 16.23 10.4 16.68 11.3 16.68C12.2 16.68 12.78 16.3 12.96 15.56L13.01 15.37H14.5L14.47 15.54C14.22 16.86 13.19 17.75 11.28 17.75C9.36 17.75 8 16.58 8 14.92C8 13.79 8.64 12.96 9.89 12.6L11.5 12.13C12.13 11.95 12.42 11.63 12.42 11.12C12.42 10.46 11.92 10.08 11.08 10.08H10.53C9.64 10.08 9.12 10.5 8.96 11.27L8.92 11.45H7.44L7.47 11.3C7.68 10.3 8.45 9.47 9.72 9.16V8H10.96V9.12C12.75 9.3 13.9 10.43 13.9 11.99C13.9 13.29 13.24 14.13 11.95 14.5L10.34 14.97C9.64 15.17 9.34 15.52 9.34 16.03C9.34 16.73 9.91 17.17 10.88 17.17C11.9 17.17 12.53 16.71 12.71 15.86L12.75 15.68H14.22L14.19 15.86C13.93 17.21 12.86 18.09 10.9 18.25V19.5H9.66V18.25C7.86 18.06 7 16.88 7 15.34V12.5Z" fill="#ffffff"/>
  <path d="M5 7.5H19" stroke="#ffffff" stroke-width="1.5" stroke-linecap="round"/>
</svg>


